<svg xmlns="http://www.w3.org/2000/svg" id="Layer_4" data-name="Layer 4" viewBox="0 0 512 512"><path d="M438.7,224H354.5l-68.77-47.609a92.292,92.292,0,0,0-78.707-12.772L53.76,208.32q-.278.081-.551.183A49.491,49.491,0,0,0,33.49,222.732C27.37,229.975,24,238.2,24,245.9V282a38.043,38.043,0,0,0,38,38H80.679a47.99,47.99,0,0,0,94.641,0H328.679a47.99,47.99,0,0,0,94.641,0h40.737A23.97,23.97,0,0,0,488,296.057V273.3A49.357,49.357,0,0,0,438.7,224Zm31.969,40a33.129,33.129,0,0,1,1.3,8h-10.2l-2.666-8ZM128,344a32,32,0,1,1,32-32A32.036,32.036,0,0,1,128,344Zm248,0a32,32,0,1,1,32-32A32.036,32.036,0,0,1,376,344Zm88.058-40H423.321a47.99,47.99,0,0,0-94.641,0H175.321a47.99,47.99,0,0,0-94.641,0H62a22.025,22.025,0,0,1-22-22V256h8a8,8,0,0,0,0-16H41.308c2.943-6.992,10.37-13.758,17.233-16.408L211.5,178.979a76.354,76.354,0,0,1,65.119,10.567l70.824,49.032A8,8,0,0,0,352,240h86.7a33.148,33.148,0,0,1,21.616,8H448a8,8,0,0,0-7.59,10.53l8,24A8,8,0,0,0,456,288h16v8.057A7.951,7.951,0,0,1,464.058,304Z"></path><path d="M128,288a24,24,0,1,0,24,24A24.027,24.027,0,0,0,128,288Zm0,32a8,8,0,1,1,8-8A8.009,8.009,0,0,1,128,320Z"></path><path d="M376,288a24,24,0,1,0,24,24A24.027,24.027,0,0,0,376,288Zm0,32a8,8,0,1,1,8-8A8.009,8.009,0,0,1,376,320Z"></path><path d="M308.24,225.216,264.054,197.6a57.423,57.423,0,0,0-48.66-5.83L109.645,224.354A8,8,0,0,0,112,240H304a8,8,0,0,0,4.24-14.784Zm-124.556-6.933V224H165.13Zm16,5.717V213.352l20.5-6.318.174-.056a41.477,41.477,0,0,1,35.21,4.189L276.105,224Z"></path></svg>